<svg xmlns="http://www.w3.org/2000/svg" width="45" height="45" viewBox="0 0 45 45"><path fill="#ccc" d="M279.839,902.726a8.816,8.816,0,0,1,8.786,8.839c0,5.23-5.125,11.088-8.786,14.435C276.125,922.653,271,916.8,271,911.565A8.862,8.862,0,0,1,279.839,902.726Zm0,1.569a7.255,7.255,0,0,0-7.27,7.27c0,4.236,4.289,9.519,7.27,12.343,2.928-2.824,7.269-8.107,7.269-12.343A7.288,7.288,0,0,0,279.839,904.3Zm0,3.034a4.21,4.21,0,1,1-4.237,4.236A4.207,4.207,0,0,1,279.839,907.329Zm0,1.516a2.694,2.694,0,1,0,2.667,2.72A2.7,2.7,0,0,0,279.839,908.845Z" transform="translate(-257.313 -891.86)"/></svg>