<svg xmlns="http://www.w3.org/2000/svg" width="45" height="45" viewBox="0 0 45 45"><path fill="#ccc" d="M291.424,1116.73a2.629,2.629,0,0,0-.466-1.49,2.665,2.665,0,0,0-1.447-4.9h-3.118v-1.82a6.94,6.94,0,0,0,1.014-.77,0.034,0.034,0,0,0,.017-0.02,5.474,5.474,0,0,0,0-7.64,5.354,5.354,0,0,0-1.855-1.18l-0.656-.26a0.788,0.788,0,0,0-.757.08,0.81,0.81,0,0,0-.35.69v3.18a0.166,0.166,0,0,1-.332,0v-3.17a0.849,0.849,0,0,0-.882-0.83,0.89,0.89,0,0,0-.282.05l-0.657.26a5.234,5.234,0,0,0-3.427,5,5.4,5.4,0,0,0,1.564,3.83,0.288,0.288,0,0,1,.116.11h-3.268a5.639,5.639,0,0,0-5.638,5.64v7.66a5.679,5.679,0,0,0,5.638,5.7h4.175v0.75a6.615,6.615,0,0,0-1.015.76c-0.008.01-.008,0.02-0.016,0.03a5.459,5.459,0,0,0,0,7.64,5.341,5.341,0,0,0,1.854,1.17l0.657,0.27a0.855,0.855,0,0,0,1.173-.77v-3.18a0.166,0.166,0,1,1,.332,0v3.18a0.825,0.825,0,0,0,.349.69,0.789,0.789,0,0,0,.757.08l0.649-.26a4.946,4.946,0,0,0,1.854-1.18,5.454,5.454,0,0,0,0-7.63,4.147,4.147,0,0,0-1.039-.79v-0.75h1.247a2.674,2.674,0,0,0,1.863-4.12,2.89,2.89,0,0,0,1.2-2.29,2.6,2.6,0,0,0-.49-1.52A2.632,2.632,0,0,0,291.424,1116.73ZM281,1101.27a3.018,3.018,0,0,1,.831-0.6v1.94a1.83,1.83,0,0,0,3.659,0v-1.93a5.573,5.573,0,0,1,.79.59,3.651,3.651,0,0,1-1.047,5.98,0.846,0.846,0,0,0-.491.76v2.34h-2.245v-2.33a0.817,0.817,0,0,0-.483-0.76,3.1,3.1,0,0,1-1.023-.7A3.782,3.782,0,0,1,281,1101.27Zm5.28,33.6a4.5,4.5,0,0,1-.79.6v-1.93a1.83,1.83,0,1,0-3.659,0v1.92a3.257,3.257,0,0,1-.831-0.59,3.785,3.785,0,0,1-.017-5.28,3.5,3.5,0,0,1,1.04-.7,0.808,0.808,0,0,0,.474-0.76v-1.26h2.245v1.25a0.831,0.831,0,0,0,.482.76h0a3.254,3.254,0,0,1,1.04.7A3.782,3.782,0,0,1,286.276,1134.87ZM289.52,1114h-1.032a0.83,0.83,0,1,0,0,1.66h0.025a0.268,0.268,0,0,0,.25.06,1.015,1.015,0,0,1,0,2.03h-1.031a0.82,0.82,0,0,0-.042,1.64,0.864,0.864,0,0,0,.358.08,1.036,1.036,0,0,1,1,1.01,1.248,1.248,0,0,1-.641,1h-1.389a0.822,0.822,0,0,0-.083,1.64,0.9,0.9,0,0,0,.358.08,1.036,1.036,0,0,1,1,1.01,1.289,1.289,0,0,1-.64,1.02H276.655a4.019,4.019,0,0,1-3.975-4.05v-7.64a3.974,3.974,0,0,1,3.95-4h4.2v0.83h-2.2a0.83,0.83,0,1,0,0,1.66H289.52A0.985,0.985,0,1,1,289.52,1114Z" transform="translate(-259.094 -1095.545)"/></svg>