<?xml version="1.0" encoding="utf-8"?>
<!-- Generator: Adobe Illustrator 24.3.0, SVG Export Plug-In . SVG Version: 6.00 Build 0)  -->
<svg version="1.1" id="Camada_1" xmlns="http://www.w3.org/2000/svg" xmlns:xlink="http://www.w3.org/1999/xlink" x="0px" y="0px"
	 viewBox="0 0 45 45" style="enable-background:new 0 0 45 45;" xml:space="preserve">
<style type="text/css">
	.st0{fill:#CCCCCC;}
</style>
<path class="st0" d="M22.5,11.5c-6.9,0-12.5,4.6-12.5,10.2c0,2.3,1,4.5,2.6,6.2c-0.7,1.9-2.3,3.6-2.3,3.6c-0.3,0.3-0.4,0.8-0.2,1.3
	c0.2,0.4,0.6,0.7,1.1,0.7c3,0,5.4-1.3,6.8-2.3c1.4,0.4,2.9,0.7,4.6,0.7c6.9,0,12.5-4.6,12.5-10.2S29.4,11.5,22.5,11.5z M22.5,29.6
	c-1.3,0-2.6-0.2-3.8-0.6l-1.1-0.4l-1,0.7c-0.7,0.5-1.7,1.1-2.8,1.4c0.4-0.6,0.7-1.3,1-2l0.5-1.4l-1-1.1c-0.9-0.9-2-2.5-2-4.6
	c0-4.3,4.6-7.8,10.2-7.8s10.2,3.5,10.2,7.8S28.1,29.6,22.5,29.6z M24,20.9l-2.5-0.7c-0.2-0.1-0.3-0.2-0.3-0.4c0-0.2,0.2-0.4,0.4-0.4
	h1.6c0.2,0,0.3,0,0.5,0.1c0.2,0.1,0.5,0.1,0.7-0.1l0.9-0.9c0.3-0.3,0.2-0.7-0.1-0.9c-0.5-0.3-1-0.5-1.6-0.6v-0.9
	c0-0.4-0.4-0.8-0.8-0.8h-0.8c-0.4,0-0.8,0.4-0.8,0.8v0.9c-1.5,0.2-2.6,1.5-2.4,3.1c0.1,1.1,1,2,2.1,2.3l2.5,0.7
	c0.2,0.1,0.3,0.2,0.3,0.4c0,0.2-0.2,0.4-0.4,0.4h-1.6c-0.2,0-0.3,0-0.5-0.1c-0.2-0.1-0.5-0.1-0.7,0.1l-0.9,0.9
	c-0.3,0.3-0.2,0.7,0.1,0.9c0.5,0.3,1,0.5,1.6,0.6v0.9c0,0.4,0.4,0.8,0.8,0.8h0.8c0.4,0,0.8-0.4,0.8-0.8v-0.9
	c1.5-0.2,2.6-1.5,2.4-3.1C26,22.1,25.1,21.2,24,20.9L24,20.9z"/>
</svg>
