<?xml version="1.0" encoding="utf-8"?>
<!-- Generator: Adobe Illustrator 24.3.0, SVG Export Plug-In . SVG Version: 6.00 Build 0)  -->
<svg version="1.1" id="Camada_1" xmlns="http://www.w3.org/2000/svg" xmlns:xlink="http://www.w3.org/1999/xlink" x="0px" y="0px"
	 viewBox="0 0 45 45" style="enable-background:new 0 0 45 45;" xml:space="preserve">
<style type="text/css">
	.st0{fill:#CCCCCC;}
</style>
<path class="st0" d="M26.1,16.4l2-3.3c0.6-1,0-2.3-1.2-2.3h-8.7c-1.2,0-1.9,1.3-1.2,2.3l2,3.3c-8.5,5.4-8.1,12.3-8.1,13.2
	c0,2.5,2.2,4.6,5,4.6h13.3c2.8,0,5-2,5-4.6C34.1,28.7,34.5,21.8,26.1,16.4z M18.1,12.3h8.7l-2.2,3.6h-4.3L18.1,12.3z M32.7,29.6
	c0,1.7-1.6,3.1-3.5,3.1H15.8c-1.9,0-3.5-1.4-3.5-3.1v-0.2c0-2.7,0.9-7.9,7.7-12h5c6.8,4.2,7.7,9.3,7.7,12.1V29.6z M23.8,25l-2.2-0.7
	c-0.3-0.1-0.4-0.3-0.4-0.6c0-0.4,0.3-0.6,0.6-0.6h1.4c0.2,0,0.4,0.1,0.6,0.2c0.2,0.1,0.4,0.1,0.5,0l0.6-0.6c0.2-0.1,0.2-0.4,0-0.5
	c0,0,0,0,0,0c-0.5-0.3-1-0.5-1.6-0.6v-0.8c0-0.2-0.2-0.4-0.4-0.4h-0.8c-0.2,0-0.4,0.2-0.4,0.4v0.8c-1.2,0-2.1,1-2.1,2.2
	c0,1,0.6,1.9,1.6,2.1l2.2,0.7c0.3,0.1,0.4,0.3,0.4,0.6c0,0.4-0.3,0.6-0.6,0.6h-1.4c-0.2,0-0.4-0.1-0.6-0.2c-0.2-0.1-0.4-0.1-0.5,0
	l-0.6,0.5c-0.2,0.1-0.2,0.4,0,0.5c0,0,0,0,0,0c0.5,0.3,1,0.5,1.6,0.6v0.8c0,0.2,0.2,0.4,0.4,0.4h0.8c0.2,0,0.4-0.2,0.4-0.4v-0.8
	c1.2,0,2.1-1,2.1-2.2C25.4,26.1,24.8,25.3,23.8,25L23.8,25z"/>
</svg>
