<svg xmlns="http://www.w3.org/2000/svg" width="45" height="45" viewBox="0 0 45 45"><path fill="#ccc" d="M281.826,1173.86a9.31,9.31,0,1,1-9.31,9.31,9.312,9.312,0,0,1,9.31-9.31m0-1.51a10.825,10.825,0,1,0,10.827,10.82,10.82,10.82,0,0,0-10.827-10.82h0Zm0.171,5.41a8.893,8.893,0,0,1,1.146.19,2.616,2.616,0,0,1,1.927,2.47,2.251,2.251,0,0,1-.912,2.06c-0.307.24-.63,0.46-0.939,0.69a1.529,1.529,0,0,0-.689,1.36,0.867,0.867,0,0,1-.624.87,0.946,0.946,0,0,1-1.121-.34,0.885,0.885,0,0,1-.128-0.44,3.016,3.016,0,0,1,1.234-2.53,7.819,7.819,0,0,0,.981-0.87,1.07,1.07,0,0,0,.254-0.6,0.935,0.935,0,0,0-.979-1.05,1.89,1.89,0,0,0-1.862.83,0.913,0.913,0,0,1-.942.43,0.835,0.835,0,0,1-.663-1.25,2.772,2.772,0,0,1,1.353-1.34A4.783,4.783,0,0,1,282,1177.76Zm0.648,9.72a1,1,0,0,1-1.068,1.11,1.016,1.016,0,0,1-1.139-.98,1.052,1.052,0,0,1,1.083-1.24A1.011,1.011,0,0,1,282.645,1187.48Z" transform="translate(-259.328 -1160.67)"/></svg>