<svg xmlns="http://www.w3.org/2000/svg" width="45" height="45" viewBox="0 0 45 45"><path fill="#ccc" d="M283.43,1054H281.8a1.5,1.5,0,0,1-1.261-.7c-0.119-.19-0.843-1.4-1.211-2.12l-1.307-.54c-0.8.26-2.233,0.61-2.356,0.64a1.485,1.485,0,0,1-1.39-.39l-1.158-1.16a1.5,1.5,0,0,1-.4-1.39c0.051-.22.394-1.59,0.641-2.36l-0.537-1.3c-0.757-.38-2.018-1.15-2.119-1.21a1.486,1.486,0,0,1-.7-1.26v-1.64a1.486,1.486,0,0,1,.7-1.26c0.186-.12,1.4-0.84,2.119-1.21l0.537-1.3c-0.252-.8-0.61-2.23-0.641-2.36a1.5,1.5,0,0,1,.4-1.39l1.158-1.15a1.465,1.465,0,0,1,1.39-.4c0.217,0.05,1.587.39,2.356,0.64l1.3-.54c0.383-.76,1.147-2.02,1.21-2.12a1.5,1.5,0,0,1,1.262-.7h1.634a1.5,1.5,0,0,1,1.262.7c0.118,0.19.842,1.4,1.211,2.12l1.3,0.54c0.8-.25,2.233-0.61,2.356-0.64a1.465,1.465,0,0,1,1.39.4l1.158,1.15a1.5,1.5,0,0,1,.4,1.39c-0.051.22-.394,1.59-0.641,2.36l0.537,1.3c0.757,0.38,2.019,1.15,2.119,1.21a1.486,1.486,0,0,1,.7,1.26v1.64a1.5,1.5,0,0,1-.7,1.26c-0.186.11-1.4,0.84-2.119,1.21l-0.527,1.3c0.252,0.8.611,2.24,0.641,2.36a1.5,1.5,0,0,1-.4,1.39l-1.157,1.16a1.485,1.485,0,0,1-1.39.39c-0.217-.05-1.587-0.39-2.357-0.64l-1.3.54c-0.384.76-1.148,2.02-1.211,2.12A1.485,1.485,0,0,1,283.43,1054Zm-5.375-4.85,2.288,0.95,0.113,0.25c0.232,0.5,1.07,1.92,1.262,2.21a0.1,0.1,0,0,0,.083.05h1.634a0.1,0.1,0,0,0,.084-0.05c0.149-.24,1.009-1.67,1.261-2.21l0.114-.25,2.3-.95,0.252,0.09c0.523,0.19,2.114.6,2.45,0.68a0.078,0.078,0,0,0,.088-0.03l1.158-1.15a0.091,0.091,0,0,0,.025-0.09c-0.063-.27-0.471-1.9-0.681-2.45l-0.093-.25,0.946-2.29,0.252-.12c0.5-.23,1.922-1.06,2.212-1.26a0.087,0.087,0,0,0,.046-0.08v-1.63a0.1,0.1,0,0,0-.046-0.09h0c-0.237-.15-1.675-1.01-2.212-1.26l-0.252-.11-0.951-2.3,0.093-.25c0.192-.52.6-2.11,0.681-2.45a0.106,0.106,0,0,0-.025-0.09l-1.158-1.15a0.078,0.078,0,0,0-.088-0.03c-0.27.06-1.892,0.47-2.45,0.68l-0.252.1-2.3-.95-0.113-.25c-0.232-.51-1.07-1.92-1.261-2.21a0.1,0.1,0,0,0-.084-0.05H281.8a0.1,0.1,0,0,0-.083.05c-0.149.23-1.009,1.67-1.262,2.21l-0.113.25-2.3.95-0.252-.09c-0.522-.19-2.114-0.6-2.45-0.68a0.093,0.093,0,0,0-.088.02l-1.158,1.16a0.091,0.091,0,0,0-.025.09c0.063,0.27.472,1.89,0.681,2.45l0.094,0.25-0.946,2.3-0.253.11c-0.5.23-1.922,1.07-2.212,1.26a0.1,0.1,0,0,0-.045.09v1.63a0.085,0.085,0,0,0,.045.08c0.237,0.15,1.675,1.01,2.212,1.26l0.253,0.12,0.951,2.29-0.094.26c-0.192.52-.6,2.11-0.681,2.44a0.091,0.091,0,0,0,.025.09l1.158,1.16a0.138,0.138,0,0,0,.088.03c0.27-.07,1.893-0.48,2.45-0.69Zm4.558-1.87a5.89,5.89,0,1,1,5.893-5.89h0A5.905,5.905,0,0,1,282.613,1047.28Zm0-10.39a4.5,4.5,0,1,0,4.5,4.5h0A4.505,4.505,0,0,0,282.613,1036.89Z" transform="translate(-260.11 -1018.89)"/></svg>