<?xml version="1.0" encoding="utf-8"?>
<!-- Generator: Adobe Illustrator 24.2.3, SVG Export Plug-In . SVG Version: 6.00 Build 0)  -->
<svg version="1.1" id="Camada_1" focusable="false" xmlns="http://www.w3.org/2000/svg" xmlns:xlink="http://www.w3.org/1999/xlink"
	 x="0px" y="0px" viewBox="0 0 640 512" style="enable-background:new 0 0 640 512;" xml:space="preserve">
<path d="M412.1,256c30.5,0,55.3-24.8,55.3-55.3s-24.8-55.3-55.3-55.3s-55.3,24.8-55.3,55.3S381.6,256,412.1,256z M412.1,163.9
	c20.3,0,36.9,16.5,36.9,36.9s-16.5,36.9-36.9,36.9s-36.9-16.5-36.9-36.9S391.8,163.9,412.1,163.9z M246.3,256
	c35.6,0,64.5-28.9,64.5-64.5S281.9,127,246.3,127s-64.5,28.9-64.5,64.5S210.6,256,246.3,256z M246.3,145.4
	c25.4,0,46.1,20.7,46.1,46.1s-20.7,46.1-46.1,46.1s-46.1-20.7-46.1-46.1S220.9,145.4,246.3,145.4z M292.4,267.5
	c-19.2,0-24,6.9-46.1,6.9s-26.9-6.9-46.1-6.9c-20.9,0-41.2,9.3-53.2,27c-7.1,10.6-11.3,23.3-11.3,37v25.8
	c0,15.3,12.4,27.6,27.6,27.6h165.9c15.3,0,27.6-12.4,27.6-27.6v-25.8c0-13.7-4.1-26.4-11.3-37C333.6,276.8,313.3,267.5,292.4,267.5
	L292.4,267.5z M338.4,357.4c0,5.1-4.1,9.2-9.2,9.2H163.4c-5.1,0-9.2-4.1-9.2-9.2v-25.8c0-9.6,2.8-18.8,8.1-26.7
	c7.9-11.8,22.1-18.9,37.8-18.9c15.8,0,21.4,6.9,46.2,6.9s30.4-6.9,46.1-6.9s29.9,7.1,37.8,18.9c5.3,7.9,8.1,17.2,8.1,26.7
	L338.4,357.4L338.4,357.4z M494.9,291.2c-10-14.7-26.9-22.5-44.3-22.5c-16,0-20,5.8-38.5,5.8c-18.4,0-22.5-5.8-38.5-5.8
	c-7.6,0-15,1.7-21.9,4.7c8.8,8.9,10.7,13.6,11.6,15.3c3.3-0.9,6.7-1.5,10.3-1.5c12.6,0,17.3,5.8,38.5,5.8s25.9-5.8,38.5-5.8
	c12.1,0,22.9,5.4,29,14.4c4.1,6,6.3,13.2,6.3,20.6v21.4c0,2.5-2.1,4.6-4.6,4.6h-106c0,10.2,0.2,13-0.9,18.4h106.9
	c12.7,0,23-10.3,23-23v-21.5C504.3,310.6,500.8,300,494.9,291.2z"/>
</svg>
