<svg xmlns="http://www.w3.org/2000/svg" width="45" height="45" viewBox="0 0 45 45"><path fill="#ccc" d="M286.171,923h-9.222a1.666,1.666,0,0,1-1.666-1.666V906.451a0.571,0.571,0,0,1,.57-0.571h10.318a1.666,1.666,0,0,1,1.666,1.667v13.787A1.666,1.666,0,0,1,286.171,923Zm-9.747-15.978v14.312a0.524,0.524,0,0,0,.525.524h9.222a0.524,0.524,0,0,0,.525-0.524h0V907.547a0.525,0.525,0,0,0-.525-0.525h-9.747Zm-0.571,6.847h-1.187A1.665,1.665,0,0,1,273,912.2v-4.656a1.666,1.666,0,0,1,1.666-1.667h1.187a0.571,0.571,0,0,1,.571.571V913.3A0.571,0.571,0,0,1,275.853,913.869Zm-1.187-6.847a0.525,0.525,0,0,0-.525.525h0V912.2a0.525,0.525,0,0,0,.525.525h0.617v-5.706h-0.617Zm9.747,2.282h-5.707a0.571,0.571,0,0,1,0-1.141h5.707A0.571,0.571,0,1,1,284.413,909.3Zm0,3.424h-5.707a0.571,0.571,0,0,1,0-1.141h5.707A0.571,0.571,0,1,1,284.413,912.728Zm-2.283,3.424h-3.424a0.571,0.571,0,0,1,0-1.141h3.424A0.571,0.571,0,1,1,282.13,916.152Z" transform="translate(-257.922 -891.938)"/></svg>