<?xml version="1.0" encoding="utf-8"?>
<!-- Generator: Adobe Illustrator 24.3.0, SVG Export Plug-In . SVG Version: 6.00 Build 0)  -->
<svg version="1.1" id="Camada_1" xmlns="http://www.w3.org/2000/svg" xmlns:xlink="http://www.w3.org/1999/xlink" x="0px" y="0px"
	 viewBox="0 0 45 45" style="enable-background:new 0 0 45 45;" xml:space="preserve">
<style type="text/css">
	.st0{fill:#CCCCCC;}
</style>
<path class="st0" d="M34.6,19.1l-1-1c-0.6-0.6-1.6-0.7-2.3-0.3l-4-4c0.4-0.7,0.4-1.7-0.3-2.3l-1-1c-0.7-0.7-1.9-0.7-2.6,0L17.7,16
	c-0.7,0.7-0.7,1.9,0,2.6l1,1c0.6,0.6,1.6,0.7,2.3,0.3l1.5,1.5l-2.9,2.9l-0.4-0.4c-0.8-0.8-2.2-0.8-3,0l-5.6,5.6
	c-0.8,0.8-0.8,2.2,0,3l1.9,1.9c0.8,0.8,2.2,0.8,3,0l5.6-5.6c0.8-0.8,0.8-2.2,0-3l-0.4-0.4l2.9-2.9L25,24c-0.4,0.7-0.4,1.7,0.3,2.3
	l1,1c0.7,0.7,1.9,0.7,2.6,0l5.6-5.6C35.3,21,35.3,19.8,34.6,19.1L34.6,19.1z M20,27.7l-5.6,5.6c-0.2,0.2-0.6,0.2-0.8,0v0l-1.9-1.9
	c-0.2-0.2-0.2-0.6,0-0.8l5.6-5.6c0.2-0.2,0.6-0.2,0.8,0l1.9,1.9C20.2,27.2,20.2,27.5,20,27.7L20,27.7z M33.4,20.6l-5.6,5.6
	c-0.1,0.1-0.3,0.1-0.4,0l-1-1c-0.1-0.1-0.1-0.3,0-0.4l0.8-0.8L21,17.8l-0.8,0.8c-0.1,0.1-0.3,0.1-0.4,0l-1-1c-0.1-0.1-0.1-0.3,0-0.4
	l5.6-5.6c0.1-0.1,0.3-0.1,0.4,0l1,1c0.1,0.1,0.1,0.3,0,0.4c0,0,0,0,0,0L25,13.8l6.2,6.2l0.8-0.8c0.1-0.1,0.3-0.1,0.4,0c0,0,0,0,0,0
	l1,1v0C33.6,20.3,33.6,20.5,33.4,20.6C33.4,20.6,33.4,20.6,33.4,20.6L33.4,20.6z"/>
</svg>
