<svg xmlns="http://www.w3.org/2000/svg" width="45" height="45" viewBox="0 0 45 45"><path fill="#ccc" d="M278.969,911.138a2.037,2.037,0,1,0-2.037-2.036A2.036,2.036,0,0,0,278.969,911.138Zm5.308-3.089H285.4v-2.794h-3.254v1.125h2.129v1.669Zm-8.456,3.774h-2.128v-2.11h-1.126v3.235h3.254v-1.125Zm11.995-.54h-0.468v-2.8h1.572v1.708a1.1,1.1,0,0,1-1.1,1.091h0ZM271.1,913.909h15.142V903.843H271.1v10.066Zm2.674-11.6a1.1,1.1,0,0,1,1.1-1.091h12.935a1.1,1.1,0,0,1,1.1,1.091v3.381h-1.572v-2.938H273.777v-0.443Zm14.039-2.182H274.881a2.2,2.2,0,0,0-2.207,2.182v0.443H270V915h17.348v-2.626h0.468a2.2,2.2,0,0,0,2.207-2.182v-7.884a2.2,2.2,0,0,0-2.207-2.182h0Z" transform="translate(-257.515 -885.063)"/></svg>