<?xml version="1.0" encoding="utf-8"?>
<!-- Generator: Adobe Illustrator 24.3.0, SVG Export Plug-In . SVG Version: 6.00 Build 0)  -->
<svg version="1.1" id="Camada_1" xmlns="http://www.w3.org/2000/svg" xmlns:xlink="http://www.w3.org/1999/xlink" x="0px" y="0px"
	 viewBox="0 0 45 45" style="enable-background:new 0 0 45 45;" xml:space="preserve">
<style type="text/css">
	.st0{fill:#CCCCCC;}
</style>
<path class="st0" d="M32.3,13.4c0.4,0,0.8,0.3,0.8,0.8v16.6c0,0.4-0.3,0.8-0.8,0.8H12.7c-0.4,0-0.8-0.3-0.8-0.8V14.2
	c0-0.4,0.3-0.8,0.8-0.8H32.3 M32.3,11.9H12.7c-1.3,0-2.3,1-2.3,2.3v16.6c0,1.3,1,2.3,2.3,2.3h19.6c1.3,0,2.3-1,2.3-2.3V14.2
	C34.6,12.9,33.6,11.9,32.3,11.9z M16.5,16.5c-0.8,0-1.5,0.7-1.5,1.5s0.7,1.5,1.5,1.5c0.8,0,1.5-0.7,1.5-1.5S17.3,16.5,16.5,16.5z
	 M16.5,21c-0.8,0-1.5,0.7-1.5,1.5s0.7,1.5,1.5,1.5c0.8,0,1.5-0.7,1.5-1.5S17.3,21,16.5,21z M16.5,25.5c-0.8,0-1.5,0.7-1.5,1.5
	s0.7,1.5,1.5,1.5c0.8,0,1.5-0.7,1.5-1.5S17.3,25.5,16.5,25.5z M30,18.5v-1.1c0-0.2-0.1-0.3-0.3-0.3h-10c-0.2,0-0.3,0.1-0.3,0.3v1.1
	c0,0.2,0.1,0.3,0.3,0.3h10C29.9,18.8,30,18.7,30,18.5z M30,23.1v-1.1c0-0.2-0.1-0.3-0.3-0.3l0,0h-10c-0.2,0-0.3,0.1-0.3,0.3l0,0v1.1
	c0,0.2,0.1,0.3,0.3,0.3h10C29.9,23.3,30,23.2,30,23.1z M30,27.6v-1.1c0-0.2-0.1-0.3-0.3-0.3h-10c-0.2,0-0.3,0.1-0.3,0.3v1.1
	c0,0.2,0.1,0.3,0.3,0.3h10C29.9,27.9,30,27.8,30,27.6z"/>
</svg>
