<?xml version="1.0" encoding="utf-8"?>
<!-- Generator: Adobe Illustrator 24.3.0, SVG Export Plug-In . SVG Version: 6.00 Build 0)  -->
<svg version="1.1" id="Camada_1" xmlns="http://www.w3.org/2000/svg" xmlns:xlink="http://www.w3.org/1999/xlink" x="0px" y="0px"
	 viewBox="0 0 45 45" style="enable-background:new 0 0 45 45;" xml:space="preserve">
<style type="text/css">
	.st0{fill:#CCCCCC;}
</style>
<path class="st0" d="M27.9,21.1v-6.8c0-1.5-1.2-2.7-2.7-2.7H13c-1.5,0-2.7,1.2-2.7,2.7v6.8c0,1.5,1.2,2.7,2.7,2.7v2.3
	c0,0.3,0.4,0.5,0.7,0.3l3.5-2.6h8C26.7,23.9,27.9,22.6,27.9,21.1z M32,18.4h-2.7v2.7c0,2.2-1.8,4.1-4.1,4.1h-6.8v2.7
	c0,1.5,1.2,2.7,2.7,2.7h5.3l3.5,2.6c0.3,0.2,0.7,0,0.7-0.3v-2.3H32c1.5,0,2.7-1.2,2.7-2.7v-6.8C34.7,19.7,33.5,18.4,32,18.4z"/>
</svg>
