<svg xmlns="http://www.w3.org/2000/svg" width="45" height="45" viewBox="0 0 45 45"><path fill="#ccc" d="M283.171,858h-9.222a1.666,1.666,0,0,1-1.666-1.666V841.451a0.571,0.571,0,0,1,.57-0.571h10.318a1.666,1.666,0,0,1,1.666,1.667v13.787A1.666,1.666,0,0,1,283.171,858Zm-9.747-15.978v14.312a0.525,0.525,0,0,0,.525.525h9.222a0.525,0.525,0,0,0,.525-0.525h0V842.547a0.525,0.525,0,0,0-.525-0.525h-9.747Zm-0.571,6.848h-1.187A1.666,1.666,0,0,1,270,847.2v-4.656a1.666,1.666,0,0,1,1.666-1.667h1.187a0.571,0.571,0,0,1,.571.571V848.3A0.571,0.571,0,0,1,272.853,848.87Zm-1.187-6.848a0.525,0.525,0,0,0-.525.525h0V847.2a0.525,0.525,0,0,0,.525.525h0.617v-5.706h-0.617Zm9.747,2.282h-5.707a0.571,0.571,0,0,1,0-1.141h5.707A0.571,0.571,0,1,1,281.413,844.3Zm0,3.424h-5.707a0.571,0.571,0,0,1,0-1.141h5.707A0.571,0.571,0,1,1,281.413,847.728Zm-2.283,3.424h-3.424a0.571,0.571,0,0,1,0-1.141h3.424A0.571,0.571,0,1,1,279.13,851.152Z" transform="translate(-254.922 -826.938)"/></svg>