<svg version="1.1" xmlns="http://www.w3.org/2000/svg" xmlns:xlink="http://www.w3.org/1999/xlink" x="0px" y="0px" viewBox="0 0 45 45" style="enable-background:new 0 0 45 45;" xml:space="preserve"><path fill="#ccc" d="M20.2,20.8c0-0.4,0.3-0.7,0.7-0.7h6.5v-4.2c0-0.3,0.4-0.5,0.6-0.3l6.4,6.4c0.3,0.3,0.3,0.7,0,1L28,29.4c-0.2,0.2-0.6,0.1-0.6-0.3V25h-6.5c-0.4,0-0.7-0.3-0.7-0.7V20.8 M18.8,20.8v3.5c0,1.2,1,2.2,2.2,2.2h5v2.8c0,1.6,1.9,2.4,3.1,1.3l6.4-6.4c0.8-0.8,0.8-2.2,0-3.1L29,14.6c-1.1-1.1-3.1-0.3-3.1,1.3v2.8h-5C19.7,18.6,18.8,19.6,18.8,20.8z M13,16V29c0,1.2,1,2.2,2.2,2.2h5.9c0.3,0,0.5-0.2,0.5-0.5v-0.4c0-0.3-0.2-0.5-0.5-0.5h-5.9c-0.4,0-0.7-0.3-0.7-0.7V16c0-0.4,0.3-0.7,0.7-0.7h5.9c0.3,0,0.5-0.2,0.5-0.5v-0.4c0-0.3-0.2-0.5-0.5-0.5h-5.9C14,13.9,13,14.8,13,16z"/></svg>