<?xml version="1.0" encoding="utf-8"?>
<!-- Generator: Adobe Illustrator 24.2.0, SVG Export Plug-In . SVG Version: 6.00 Build 0)  -->
<svg version="1.1" id="Camada_1" xmlns="http://www.w3.org/2000/svg" xmlns:xlink="http://www.w3.org/1999/xlink" x="0px" y="0px"
	 viewBox="0 0 231.6 23.2" width="231.562" height="23.188" style="enable-background:new 0 0 231.6 23.2;" xml:space="preserve">
<style type="text/css">
	.st0{fill:#777777;}
	.st1{fill:#4285F4;}
	.st2{fill:#34A853;}
	.st3{fill:#FBBC05;}
	.st4{fill:#EB4335;}
</style>
<g>
	<path class="st0" d="M49.5,7c0.4,0.4,0.6,0.8,0.6,1.2c0,0.6-0.5,1.1-1.1,1.1c-0.4,0-0.8-0.3-1.1-0.5c-0.6-0.6-1-0.9-1.9-0.9
		c-1.2,0-1.9,0.6-1.9,1.5c0,0.7,0.4,1.3,1.6,1.7l0.8,0.3c3.1,1.2,4.4,2.3,4.4,4.2c0,2.8-2.7,4.1-5.1,4.1c-1.6,0-3.2-0.6-4.2-1.9
		c-0.2-0.2-0.6-0.7-0.6-1.3c0-0.6,0.4-1.1,1.1-1.1c0.6,0,1,0.4,1.3,0.8c0.7,0.9,1.6,1.2,2.4,1.2c1,0,2.3-0.4,2.3-1.7
		c0-1-0.7-1.5-2.2-2.1l-0.8-0.3c-2.1-0.8-3.6-1.8-3.6-3.8c0-2.4,2-3.9,4.5-3.9C47.6,5.5,48.7,6.1,49.5,7z"/>
	<path class="st0" d="M52.8,6.4c0-0.7,0.6-1.3,1.3-1.3s1.3,0.6,1.3,1.3s-0.6,1.3-1.3,1.3C53.4,7.7,52.8,7.1,52.8,6.4z M55.4,10.5
		v7.9c0,0.7-0.6,1.3-1.3,1.3s-1.3-0.6-1.3-1.3v-7.9c0-0.7,0.6-1.3,1.3-1.3C54.8,9.2,55.4,9.8,55.4,10.5z"/>
	<path class="st0" d="M67.9,18.4c0,0.1,0,0.2,0,0.3v0.7c0,3.3-3,4.3-5.2,4.3c-1.2,0-2.2-0.3-2.7-0.5c-0.6-0.2-0.9-0.6-0.9-1.1
		c0-0.6,0.5-1,1-1c0.1,0,0.3,0,0.5,0.1c0.4,0.1,1.1,0.3,2,0.3c1.6,0,2.5-0.9,2.5-2v-1.4c-0.2,0.6-1.2,1.7-3,1.7
		c-2.2,0-4.8-1.7-4.8-5.3s2.7-5.3,4.8-5.3c1.4,0,2.6,0.8,3,1.7v-0.4c0-0.7,0.6-1.3,1.3-1.3c0.7,0,1.3,0.6,1.3,1.3v7.9H67.9z
		 M65.3,14.4c0-2.3-1.5-3.1-2.6-3.1c-1.3,0-2.7,1-2.7,3.1s1.4,3.1,2.7,3.1C63.8,17.5,65.3,16.7,65.3,14.4z"/>
	<path class="st0" d="M80.3,13.9v4.5c0,0.7-0.6,1.3-1.3,1.3c-0.7,0-1.3-0.6-1.3-1.3v-4.5c0-1.8-0.9-2.5-2.1-2.5
		c-1.8,0-2.4,1.7-2.5,2.2v4.8c0,0.7-0.6,1.3-1.3,1.3c-0.7,0-1.3-0.6-1.3-1.3v-7.9c0-0.7,0.6-1.3,1.3-1.3c0.7,0,1.3,0.6,1.3,1.3v1
		c0.1-0.7,1.3-2.4,3.4-2.4C78.5,9.1,80.3,10.4,80.3,13.9z"/>
	<path class="st0" d="M88.4,6.4c0-0.7,0.6-1.3,1.3-1.3c0.7,0,1.3,0.6,1.3,1.3s-0.6,1.3-1.3,1.3S88.4,7.1,88.4,6.4z M91.1,10.5v7.9
		c0,0.7-0.6,1.3-1.3,1.3c-0.7,0-1.3-0.6-1.3-1.3v-7.9c0-0.7,0.6-1.3,1.3-1.3S91.1,9.8,91.1,10.5z"/>
	<path class="st0" d="M103.3,13.9v4.5c0,0.7-0.6,1.3-1.3,1.3c-0.7,0-1.3-0.6-1.3-1.3v-4.5c0-1.8-0.9-2.5-2.1-2.5
		c-1.8,0-2.4,1.7-2.5,2.2v4.8c0,0.7-0.6,1.3-1.3,1.3c-0.7,0-1.3-0.6-1.3-1.3v-7.9c0-0.7,0.6-1.3,1.3-1.3c0.7,0,1.3,0.6,1.3,1.3v1
		c0.1-0.7,1.3-2.4,3.4-2.4C101.5,9.1,103.3,10.4,103.3,13.9z"/>
	<path class="st0" d="M126.5,10.4c0,0.2-0.1,0.4-0.2,0.6l-2.7,7.7c-0.2,0.7-0.7,1-1.2,1c-0.6,0-1-0.3-1.3-1l-2.4-5.7l-2.4,5.7
		c-0.3,0.7-0.7,1-1.3,1c-0.6,0-1-0.3-1.3-1L111,11c-0.1-0.2-0.2-0.4-0.2-0.6c0-0.7,0.5-1.2,1.2-1.2c0.5,0,1,0.3,1.1,0.7l1.9,6
		l2.4-5.9c0.2-0.5,0.6-0.8,1.2-0.8s1,0.3,1.2,0.8l2.4,5.9l1.9-6c0.1-0.4,0.6-0.7,1.1-0.7C125.9,9.2,126.5,9.7,126.5,10.4z"/>
	<path class="st0" d="M128.3,6.4c0-0.7,0.6-1.3,1.3-1.3s1.3,0.6,1.3,1.3s-0.6,1.3-1.3,1.3C128.9,7.7,128.3,7.1,128.3,6.4z M131,10.5
		v7.9c0,0.7-0.6,1.3-1.3,1.3s-1.3-0.6-1.3-1.3v-7.9c0-0.7,0.6-1.3,1.3-1.3S131,9.8,131,10.5z"/>
	<path class="st0" d="M139.2,18.3c0,0.9-0.9,1.4-2.3,1.4c-1.4,0-2.7-0.4-2.7-3.2v-5.2h-0.6c-0.6,0-1.1-0.4-1.1-1c0-0.6,0.4-1,1.1-1
		h0.6V7.9c0-0.7,0.6-1.3,1.3-1.3s1.3,0.6,1.3,1.3v1.4h1.3c0.7,0,1.1,0.4,1.1,1s-0.4,1-1.1,1h-1.3v5.3c0,0.6,0.2,0.9,0.6,0.9
		c0.2,0,0.5-0.1,0.8-0.1C138.8,17.3,139.2,17.7,139.2,18.3z"/>
	<path class="st0" d="M150.8,13.9v4.5c0,0.7-0.6,1.3-1.3,1.3s-1.3-0.6-1.3-1.3v-4.5c0-1.8-0.9-2.5-2.1-2.5c-1.8,0-2.4,1.7-2.5,2.2
		v4.8c0,0.7-0.6,1.3-1.3,1.3s-1.3-0.6-1.3-1.3V6.6c0-0.7,0.6-1.3,1.3-1.3s1.3,0.6,1.3,1.3v4.8c0.1-0.7,1.3-2.4,3.4-2.4
		C149.1,9.1,150.8,10.4,150.8,13.9z"/>
	<path class="st0" d="M172.1,13.8c-0.2,3.9-3.1,5.9-6.2,5.9c-3.6,0-7.1-2.9-7.1-7.1s3.6-7.1,7-7.1c1.4,0,2.5,0.4,3.3,0.9
		c0.7,0.5,1.2,0.9,1.2,1.6c0,0.8-0.6,1.2-1.3,1.2c-0.5,0-0.9-0.3-1.1-0.4c-0.3-0.2-1-0.7-2.2-0.7c-2.3,0-4.3,2-4.3,4.6
		s2,4.6,4.3,4.6c1.6,0,3.3-1,3.6-2.8H167c-0.6,0-1.2-0.5-1.2-1.1c0-0.7,0.6-1.1,1.2-1.1h3.5C171.6,12.1,172.1,12.8,172.1,13.8z"/>
	<path class="st0" d="M184.4,14.4c0,3.6-3.1,5.3-5.3,5.3c-2.3,0-5.3-1.7-5.3-5.3s3-5.3,5.3-5.3S184.4,10.9,184.4,14.4z M176.4,14.4
		c0,1.9,1.3,3,2.7,3s2.7-1.1,2.7-3s-1.3-3.1-2.7-3.1C177.7,11.4,176.4,12.5,176.4,14.4z"/>
	<path class="st0" d="M196.6,14.4c0,3.6-3.1,5.3-5.3,5.3c-2.3,0-5.3-1.7-5.3-5.3s3-5.3,5.3-5.3C193.5,9.1,196.6,10.9,196.6,14.4z
		 M188.5,14.4c0,1.9,1.3,3,2.7,3s2.7-1.1,2.7-3s-1.3-3.1-2.7-3.1C189.8,11.4,188.5,12.5,188.5,14.4z"/>
	<path class="st0" d="M208.5,18.4c0,0.1,0,0.2,0,0.3v0.7c0,3.3-3,4.3-5.2,4.3c-1.2,0-2.2-0.3-2.7-0.5c-0.6-0.2-0.9-0.6-0.9-1.1
		c0-0.6,0.5-1,1-1c0.1,0,0.3,0,0.5,0.1c0.4,0.1,1.1,0.3,2,0.3c1.6,0,2.5-0.9,2.5-2v-1.4c-0.2,0.6-1.2,1.7-3,1.7
		c-2.2,0-4.8-1.7-4.8-5.3s2.7-5.3,4.8-5.3c1.4,0,2.6,0.8,3,1.7v-0.4c0-0.7,0.6-1.3,1.3-1.3s1.3,0.6,1.3,1.3v7.9H208.5z M205.9,14.4
		c0-2.3-1.5-3.1-2.6-3.1c-1.3,0-2.7,1-2.7,3.1s1.4,3.1,2.7,3.1C204.4,17.5,205.9,16.7,205.9,14.4z"/>
	<path class="st0" d="M212.2,19.7c-0.7,0-1.3-0.6-1.3-1.3V6.6c0-0.7,0.6-1.3,1.3-1.3s1.3,0.6,1.3,1.3v11.8
		C213.5,19.1,212.9,19.7,212.2,19.7z"/>
	<path class="st0" d="M225.7,14c0,1-0.6,1.4-1.6,1.4h-5.9c0.2,1.5,1.4,2.2,2.9,2.2c0.7,0,1.1-0.2,1.7-0.4c0.4-0.2,0.6-0.3,1-0.3
		c0.6,0,0.9,0.4,0.9,0.9c0,0.3-0.1,0.7-0.6,1.1c-0.7,0.5-1.7,0.9-3,0.9c-2.7,0-5.5-1.6-5.5-5.3c0-3.6,3-5.3,5.3-5.3
		S225.7,10.9,225.7,14z M218.2,13.6h5c-0.2-1.5-1.3-2.2-2.5-2.2S218.4,12,218.2,13.6z"/>
</g>
<g>
	<path class="st1" d="M34.2,11.5c0-0.9-0.1-1.6-0.2-2.3H23.4v4.2h6.2c-0.1,1-0.8,2.6-2.3,3.7v0.1l3.3,2.6h0.2
		C33,17.8,34.2,14.9,34.2,11.5"/>
	<path class="st2" d="M23.4,22.5c3,0,5.6-1,7.5-2.7L27.3,17c-1,0.7-2.2,1.1-3.9,1.1c-3,0-5.5-2-6.4-4.7h-0.1l-3.5,2.7v0.1
		C15.2,20,19,22.5,23.4,22.5"/>
	<path class="st3" d="M17,13.5c-0.2-0.7-0.4-1.5-0.4-2.2c0-0.8,0.1-1.5,0.4-2.2V9l-3.5-2.7l-0.1,0.1c-0.8,1.5-1.2,3.2-1.2,5.1
		s0.4,3.5,1.2,5.1L17,13.5"/>
	<path class="st4" d="M23.4,4.4c2.1,0,3.5,0.9,4.4,1.7L31,3c-2-1.9-4.5-3-7.6-3c-4.4,0-8.2,2.5-10,6.2L17,9
		C17.9,6.3,20.4,4.4,23.4,4.4"/>
</g>
</svg>
