<svg xmlns="http://www.w3.org/2000/svg" width="231.562" height="23.188" viewBox="0 0 231.562 23.188">
  <defs>
    <style>
      .cls-1 {
        fill: #fff;
        fill-rule: evenodd;
      }
    </style>
  </defs>
  <path id="Sign_in_with_Facebook" data-name="Sign in with Facebook" class="cls-1" d="M558.534,742.9h-3.425v-2.247a0.914,0.914,0,0,1,.952-1.041h2.417v-3.71l-3.329-.013a4.216,4.216,0,0,0-4.536,4.538V742.9h-2.138v3.824h2.138v10.818h4.5V746.727h3.033Zm16.889-2.059c-2.5,0-4.5,1.481-4.5,3.864,0,2.042,1.522,3.043,3.584,3.844l0.841,0.32c1.541,0.6,2.242,1.081,2.242,2.122,0,1.362-1.341,1.742-2.322,1.742a3.029,3.029,0,0,1-2.4-1.161,1.6,1.6,0,0,0-1.281-.761,1.081,1.081,0,0,0-1.1,1.141,2.079,2.079,0,0,0,.561,1.3,5.432,5.432,0,0,0,4.225,1.882c2.322,0,5.065-1.382,5.065-4.145,0-1.922-1.261-3.063-4.385-4.244l-0.781-.3c-1.2-.461-1.561-1.061-1.561-1.722,0-.881.7-1.5,1.922-1.5a2.4,2.4,0,0,1,1.922.9,1.573,1.573,0,0,0,1.081.541,1.086,1.086,0,0,0,1.121-1.081,1.867,1.867,0,0,0-.58-1.2A4.581,4.581,0,0,0,575.423,740.844Zm8.236,2.262a1.3,1.3,0,1,0-1.341-1.3A1.342,1.342,0,0,0,583.659,743.106Zm0,1.422a1.332,1.332,0,0,0-1.321,1.321v7.928a1.311,1.311,0,1,0,2.622,0v-7.928A1.328,1.328,0,0,0,583.659,744.528Zm13.789,1.3a1.36,1.36,0,0,0-1.341-1.3,1.329,1.329,0,0,0-1.322,1.3v0.34a3.164,3.164,0,0,0-2.963-1.7,5.36,5.36,0,0,0,0,10.671,3.049,3.049,0,0,0,2.963-1.7V754.8c0,1.181-.9,2.042-2.522,2.042a7.168,7.168,0,0,1-1.983-.341,1.82,1.82,0,0,0-.54-0.1,1.034,1.034,0,0,0-1.041,1.041,1.231,1.231,0,0,0,.861,1.121,6.8,6.8,0,0,0,2.683.541c2.122,0,5.165-1.041,5.165-4.3v-0.681a1.544,1.544,0,0,0,.04-0.3v-7.988Zm-5.145,7.047a3.11,3.11,0,0,1,0-6.166c1.121,0,2.6.821,2.6,3.083S593.424,752.876,592.3,752.876Zm13.761-8.388a3.435,3.435,0,0,0-3.424,2.362v-1a1.312,1.312,0,1,0-2.623,0V753.8a1.312,1.312,0,0,0,2.623,0v-4.825a2.6,2.6,0,0,1,2.483-2.242c1.181,0,2.122.741,2.122,2.543V753.8a1.312,1.312,0,0,0,2.623,0v-4.524C609.868,745.809,608.086,744.488,606.064,744.488Zm13.274-1.382a1.3,1.3,0,1,0-1.341-1.3A1.343,1.343,0,0,0,619.338,743.106Zm0,1.422a1.332,1.332,0,0,0-1.321,1.321v7.928a1.312,1.312,0,1,0,2.623,0v-7.928A1.329,1.329,0,0,0,619.338,744.528Zm9.765-.04a3.436,3.436,0,0,0-3.424,2.362v-1a1.311,1.311,0,1,0-2.622,0V753.8a1.311,1.311,0,0,0,2.622,0v-4.825a2.6,2.6,0,0,1,2.483-2.242c1.181,0,2.122.741,2.122,2.543V753.8a1.312,1.312,0,0,0,2.623,0v-4.524C632.907,745.809,631.125,744.488,629.1,744.488Zm25.768,0.04a1.184,1.184,0,0,0-1.121.7l-1.922,6.027-2.383-5.927a1.174,1.174,0,0,0-1.181-.8,1.207,1.207,0,0,0-1.181.8l-2.383,5.927-1.922-6.027a1.177,1.177,0,0,0-1.1-.7,1.222,1.222,0,0,0-1.241,1.241,2.024,2.024,0,0,0,.18.6l2.663,7.668a1.3,1.3,0,0,0,1.261,1,1.394,1.394,0,0,0,1.281-1l2.443-5.726,2.442,5.726a1.382,1.382,0,0,0,1.3,1,1.314,1.314,0,0,0,1.241-1l2.683-7.668a2.866,2.866,0,0,0,.18-0.6A1.234,1.234,0,0,0,654.871,744.528Zm4.366-1.422a1.3,1.3,0,1,0-1.341-1.3A1.343,1.343,0,0,0,659.237,743.106Zm0,1.422a1.333,1.333,0,0,0-1.321,1.321v7.928a1.312,1.312,0,1,0,2.623,0v-7.928A1.329,1.329,0,0,0,659.237,744.528Zm8.584,8.228c-0.22,0-.541.08-0.761,0.08-0.44,0-.641-0.3-0.641-0.881V746.65h1.322a1.031,1.031,0,1,0,0-2.062h-1.322v-1.362a1.315,1.315,0,0,0-1.3-1.321,1.332,1.332,0,0,0-1.321,1.321v1.362h-0.581a1.031,1.031,0,1,0,0,2.062H663.8v5.225c0,2.783,1.381,3.224,2.742,3.224s2.263-.481,2.263-1.4A0.858,0.858,0,0,0,667.821,752.756Zm8.821-8.268a3.435,3.435,0,0,0-3.424,2.362v-4.845a1.312,1.312,0,0,0-2.623,0V753.8a1.312,1.312,0,0,0,2.623,0v-4.825a2.6,2.6,0,0,1,2.483-2.242c1.181,0,2.122.741,2.122,2.543V753.8a1.312,1.312,0,0,0,2.623,0v-4.524C680.446,745.809,678.664,744.488,676.642,744.488Zm21.263-2.343a1.2,1.2,0,0,0-1.2-1.161h-6.647a1.431,1.431,0,0,0-1.482,1.481v11.292a1.394,1.394,0,0,0,1.361,1.382,1.377,1.377,0,0,0,1.342-1.382v-4.3h4.445a1.152,1.152,0,1,0,0-2.3h-4.445v-3.8H696.7A1.218,1.218,0,0,0,697.905,742.145Zm9.819,2.383a1.328,1.328,0,0,0-1.321,1.3v0.34a3.167,3.167,0,0,0-2.963-1.7,5.36,5.36,0,0,0,0,10.671,3.049,3.049,0,0,0,2.963-1.7v0.38a1.316,1.316,0,0,0,1.321,1.3,1.347,1.347,0,0,0,1.342-1.3v-7.988A1.361,1.361,0,0,0,707.724,744.528Zm-3.8,8.348a3.11,3.11,0,0,1,0-6.166c1.121,0,2.6.821,2.6,3.083S705.041,752.876,703.92,752.876Zm15.283-1.1a1.62,1.62,0,0,0-1.021.421,2.512,2.512,0,0,1-1.682.62,3.039,3.039,0,0,1,0-6.066,2.508,2.508,0,0,1,1.682.621,1.62,1.62,0,0,0,1.021.42,1.017,1.017,0,0,0,1.061-1,1.683,1.683,0,0,0-.741-1.221,4.444,4.444,0,0,0-3.123-1.1,5.316,5.316,0,1,0,0,10.631,4.461,4.461,0,0,0,3.123-1.121,1.606,1.606,0,0,0,.741-1.2A1.017,1.017,0,0,0,719.2,751.775Zm7.717-7.307a5.266,5.266,0,0,0-5.266,5.345c0,3.644,2.823,5.286,5.486,5.286a5.143,5.143,0,0,0,3-.861,1.437,1.437,0,0,0,.641-1.1,0.861,0.861,0,0,0-.9-0.9,2.454,2.454,0,0,0-.981.32,3.532,3.532,0,0,1-1.662.421,2.673,2.673,0,0,1-2.863-2.243l5.946,0.04c1.062,0,1.642-.36,1.642-1.4A5.03,5.03,0,0,0,726.92,744.468Zm0,2.282a2.355,2.355,0,0,1,2.462,2.182h-5A2.416,2.416,0,0,1,726.92,746.75Zm12.66-2.282a3.167,3.167,0,0,0-2.963,1.7v-0.34a0.82,0.82,0,0,0-.02-0.22v-3.6a1.325,1.325,0,0,0-1.3-1.3,1.347,1.347,0,0,0-1.342,1.3v11.812a1.347,1.347,0,0,0,1.342,1.3,1.316,1.316,0,0,0,1.321-1.3v-0.38a3.049,3.049,0,0,0,2.963,1.7A5.36,5.36,0,0,0,739.58,744.468Zm-0.48,8.408c-1.121,0-2.6-.82-2.6-3.083s1.482-3.083,2.6-3.083A3.11,3.11,0,0,1,739.1,752.876Zm12.1-8.408a5.336,5.336,0,1,0,5.346,5.345A5.344,5.344,0,0,0,751.2,744.468Zm0,2.282a3.071,3.071,0,1,1-2.743,3.063A2.833,2.833,0,0,1,751.2,746.75Zm12.12-2.282a5.336,5.336,0,1,0,5.346,5.345A5.344,5.344,0,0,0,763.319,744.468Zm0,2.282a3.071,3.071,0,1,1-2.742,3.063A2.833,2.833,0,0,1,763.319,746.75Zm16.365,6.407-3.584-3.924,2.883-2.683a1.217,1.217,0,0,0,.32-0.841,1.2,1.2,0,0,0-1.181-1.181,1.276,1.276,0,0,0-.881.38l-3.964,3.884v-6.787a1.312,1.312,0,0,0-2.623,0V753.8a1.312,1.312,0,0,0,2.623,0v-1.922l1.2-1.121,3.584,3.984a1.04,1.04,0,0,0,.8.361,1.158,1.158,0,0,0,1.161-1.141A1.142,1.142,0,0,0,779.684,753.157Z" transform="translate(-548.469 -735.906)"/>
</svg>
