<svg xmlns="http://www.w3.org/2000/svg" width="290" height="110" viewBox="0 0 1788.93 679.62"><g><g><path fill="#540a68" d="M570.84,187.75c1-9.42.75-19,2.17-28.37V151a39.62,39.62,0,0,1,0-15.42v-7c-1-4.75-1-9.62-1.27-14.45-.75-13-5.64-23.42-16.11-29.88-11.34-7-23.65-6.59-35.77-3.84C502.67,84.25,490,95.86,479.59,111c-4.25,6.2-9,11.8-15.79,14.67-10.21,4.31-18.5-1.78-18.65-13.71a70.1,70.1,0,0,1,.79-9c2.51-21.87-10.69-42.05-29.73-43.18-3.07-.18-6.28,0-9.27-1.31H390.46c-2.1,1.43-4.41.38-6.6.71-7.34.63-14.72.84-21.59,4.46-14.66,7.73-25,19.55-29.63,37.08-3.22,12.15-10,20.33-21.69,22.74-7.14,1.48-12-1.38-14.36-8.84a67.71,67.71,0,0,1-2.43-10.86c-1.79-12-7.71-20.43-18-25-25.44-11.39-54.11-1.19-73,21.36-7.56,9-12.28,20.06-18.6,29.94-9.18,14.33-22.92,14.41-32.23.45-4.53-6.81-9.58-13.13-16.94-16.38-10.92-4.84-20.85-1.33-30,5.24C82.14,135.93,66,159.45,54,186.38c-17.61,39.67-31.75,80.86-41,124-4.37,20.41-9.26,40.69-10.9,61.69-.81,10.39-.48,20.87-2.1,31.19v8.41a16.26,16.26,0,0,1,0,9.81v5.61c1,1.19.49,2.66.64,4,.78,6.68.78,13.55,4,19.61,11.13,21.06,34,24.63,51,8.12,13.47-13.08,20-30.36,24.31-48.91,8.9-38.14,18-76.22,26.92-114.36a54.38,54.38,0,0,1,4.68-13.72c4.83-8.92,17.39-14.1,25.46-10.55,6.73,3,8.49,10.17,5.43,23.16-4.61,19.63-9.34,39.22-13.93,58.85-9.2,39.26-19,78.36-27.32,117.85-2.31,10.93-2.93,22.29,3.06,32.53,8.68,14.84,22.5,18.39,36.62,17,29.64-2.9,51.34-19.36,59.53-54Q215.63,402,231,337.42c4.62-19.39,9-38.83,13.88-58.15,1.93-7.72,4.47-15.29,11.26-19.51,6.15-3.81,12.91-7.73,19.61-2.63,7,5.32,5.21,13.45,3.39,21.08-6.12,25.69-12.07,51.44-18.21,77.13-9.54,39.88-18.79,79.85-28.33,119.74a77.19,77.19,0,0,0-2,20.08c.52,20.71,12.57,34.18,31.42,34.92,2.24.33,4.61-.73,6.76.7H278.9c2.16-1.43,4.54-.37,6.79-.7,9.75-.56,19.12-2,27.66-8.25,14.79-10.78,24.39-25.45,29.23-44.14,5.33-20.62,10.08-41.42,14.94-62.17,10.58-45.13,21.46-90.17,32-135.32,1.78-7.64,5-14.51,10.56-19.51s12.14-7.95,19.38-4.24c5.09,2.61,7.42,10.88,5.58,20-8.3,40.95-19.13,81.19-28.19,121.93-6,27.14-14.14,53.72-18.26,81.38-3,19.88,10.33,40.2,28.32,44A70.08,70.08,0,0,0,437.6,523c30.08-7,48.7-29.11,61.59-58.2,8.83-19.93,15.09-41.05,21.74-61.94a1425.82,1425.82,0,0,0,39.43-154C564.39,228.58,568.74,208.39,570.84,187.75Z"/><path fill="#540a68" d="M458.94,553.44,254,542.55c-21.83-1.16-37.13,23.5-28.29,45.6l6.45,16.13c3.61,9,10.74,15.75,19.37,18.27l191.53,56c17.21,5,34.47-7.87,36.68-27.39l6.92-61.21C488.81,571.15,476,554.35,458.94,553.44Z"/><path fill="#540a68" d="M827.43,341.75c-.15.67-.26,1.34-.39,2a.26.26,0,0,0,0-.08A4,4,0,0,0,827.43,341.75Z"/><path fill="#540a68" d="M1786.6,299.19q-2.14-6.42-5-13.18a38.46,38.46,0,0,0-7.85-11.89l-5.72-5.79q-.72-8.34-1.07-16.72c-.25-5.56,1.79-31.71,1.79-34.72a86.73,86.73,0,0,0-5.72-30.22,35.75,35.75,0,0,0-5.71-10.93q-3.58-4.5-8.57-9.64a51.79,51.79,0,0,0-6.79-4.18A80.18,80.18,0,0,0,1733,159a39.89,39.89,0,0,0-20,0,31.8,31.8,0,0,0-7.85,3.54A53.28,53.28,0,0,0,1698,168a92.68,92.68,0,0,0-10,11.9,106.92,106.92,0,0,0-7.86,13.18q-7.87,14.81-15.36,29.26c-5,9.64-14.17,31.4-14.64,31.82,0,0-.12-67.19-.36-70.4a26.42,26.42,0,0,0-7.14-16.08,17.34,17.34,0,0,0-6.79-4.82q-10-2.56-15.36,4.18a32.72,32.72,0,0,0-6.79,13.82c0,.87-4,15-5,18s-1.92,6.22-2.86,9.64L1600.14,233a142.8,142.8,0,0,0-3.93,21.22q-1.07,10.31-2.5,21.22c-.8,7.2-1.43,14.3-1.88,21.34q-8,3.92-11.47,13.16A167.42,167.42,0,0,1,1569.64,335a236.62,236.62,0,0,1-30,42.44,233.16,233.16,0,0,1-52.15,43.72,139.8,139.8,0,0,1-16.44,8,154.3,154.3,0,0,1-17.86,6.11,66.23,66.23,0,0,1-20.71.64,71.61,71.61,0,0,1-10.72-3.21l-6.43-5.79-5-10.93-1.43-7.07a73.37,73.37,0,0,0-.36-7.4,25.87,25.87,0,0,1,.36-7.39,31.37,31.37,0,0,1,.71-7.72,39.46,39.46,0,0,0,25,8.36,36.92,36.92,0,0,0,14.64-2.89,54.79,54.79,0,0,0,12.51-7.4,47.54,47.54,0,0,0,10-9q4.27-5.13,7.86-10.29a141.53,141.53,0,0,0,23.57-54q6.43-30.21-2.86-56.58a63.47,63.47,0,0,0-16.43-23.79,56.57,56.57,0,0,0-13.57-7.72,34,34,0,0,0-15.72-2.57q-18.58,1.29-30.71,12.54a232.64,232.64,0,0,0-22.15,23.47,206.56,206.56,0,0,0-29.65,47.26,256.08,256.08,0,0,0-16.79,51.76c-.41,1.85-.77,3.67-1.09,5.48,0-2,.12-4.11.21-6.22.24-5.56,10.12-147.66,13.93-176.82l5.72-45q1.42-10.92,2.5-22.18t2.5-22.83L1382,68.68q1.42-7.71,2.5-15.75t2.5-15.75A32.51,32.51,0,0,0,1384.09,14a27.48,27.48,0,0,0-5-8,16.94,16.94,0,0,0-7.86-5.47q-11.43-1.92-17.14,3.22a25.69,25.69,0,0,0-6.43,8.68,71.66,71.66,0,0,0-3.58,10l-2.85,12.21q-1.44,5.16-2.51,9.65c-.71,3-1.55,6-2.49,9l-2.86,8.36-8.57,32.15a270.41,270.41,0,0,0-7.15,27.33q-2.87,13.83-5.71,28L1303.36,196q-.7,3.85-1.07,7.71a30.36,30.36,0,0,1-1.78,7.72v.64s-23.52-25.64-52.87-25.72c-7.84,0-27.39,5.14-30.71,6.43a85.11,85.11,0,0,0-28.58,19.93,154.43,154.43,0,0,0-23.93,30.22q-8.13,13.55-15,28c-.41,0-.83.05-1.25.1q-8.58.66-14.29,8.36a483.09,483.09,0,0,1-39.29,48.87q-7.15,8.37-14.65,15.75t-15.36,14.47l-15.36,13.82a104.17,104.17,0,0,1-16.07,11.9q-3.59,1.94-7.15,3.54c-2.39,1.07-4.76,2-7.14,2.89h-8.57a11.57,11.57,0,0,1-4.29-1.29l-3.57-2.57c0-.42-.48-1.06-1.43-1.93v-1.28a1.26,1.26,0,0,0-.36-1,1.2,1.2,0,0,1-.35-1,91.62,91.62,0,0,1-.36-14.15c.23-4.71.36-9.42.36-14.15q0-9-.36-18.64T998.89,316q0-10.92-.72-21.21a173,173,0,0,0-2.86-21.22,71.11,71.11,0,0,0-6.07-20.9A55,55,0,0,0,976,235q-12.87-11.56-29.29-12.21a32.8,32.8,0,0,0-17.15,1.93,73.13,73.13,0,0,0-15,8.35,62.16,62.16,0,0,0-11.43,10.29q-5,5.79-9.29,11.58-3.58,5.79-7.5,11.57a136.71,136.71,0,0,1-8.22,10.93L826,354.61a57.87,57.87,0,0,1,.36-6.43c.16-1.47.4-2.94.68-4.42a2.61,2.61,0,0,0-.32,1.21q1.42-15.44,3.57-30.87T836,283.24l5-30.86a100.1,100.1,0,0,0,2.14-11.58,95.58,95.58,0,0,0,.72-11.57v-9.65a24.36,24.36,0,0,1,.71-6.43,8.21,8.21,0,0,0-.71,3.86,57.85,57.85,0,0,1,.35-6.43,66.32,66.32,0,0,0,.36-7.07A52.11,52.11,0,0,0,841,190a19,19,0,0,0-9.29-10.29,13.58,13.58,0,0,0-11.43-1.29A18.18,18.18,0,0,0,811,185.5a51.8,51.8,0,0,0-5,7.72v-.64l-6.07,10.93a110.11,110.11,0,0,0-5.36,10.93l-6.43,18.64A214.1,214.1,0,0,0,781,256.23q-2.87,11.58-6.43,23.15v-1.93l-6.49,28.15a27,27,0,0,0-2,4.3A167.42,167.42,0,0,1,755.35,335a236.62,236.62,0,0,1-30,42.44,233.16,233.16,0,0,1-52.15,43.72,140.43,140.43,0,0,1-16.43,8,155.61,155.61,0,0,1-17.86,6.11,66.31,66.31,0,0,1-20.72.64,71.61,71.61,0,0,1-10.72-3.21L601,427.56v-.64l-1.43-3.21-2.86-6.43L596,416l-1.43-7.07a73.37,73.37,0,0,0-.36-7.4,25.87,25.87,0,0,1,.36-7.39,31.37,31.37,0,0,1,.71-7.72,39.46,39.46,0,0,0,25,8.36A37,37,0,0,0,635,391.88a54.94,54.94,0,0,0,12.5-7.4,47.29,47.29,0,0,0,10-9q4.29-5.13,7.86-10.29a141.38,141.38,0,0,0,23.57-54q6.44-30.21-2.86-56.58a63.47,63.47,0,0,0-16.43-23.79,56.57,56.57,0,0,0-13.57-7.72,34,34,0,0,0-15.72-2.57q-18.58,1.29-30.71,12.54a232.64,232.64,0,0,0-22.15,23.47,206.91,206.91,0,0,0-29.65,47.26A256.08,256.08,0,0,0,541,355.55a121,121,0,0,0-2.14,12.54c-.48,4.08-1,8-1.43,11.89q0,5.16-.36,10.29c-.24,3.43-.35,6.86-.35,10.29a67.53,67.53,0,0,0,.71,10q.7,4.82,1.43,10a136.81,136.81,0,0,0,7.86,28.94l4.28,9.64c2.38,3.44,4.29,6.11,5.72,8a82.11,82.11,0,0,0,6.43,7.39l2.14,1.93,6.43,5.14a12,12,0,0,0,3.57,3.22,47,47,0,0,0,5,2.57A65.88,65.88,0,0,0,596,495.08a78,78,0,0,0,32.86,3.21,109,109,0,0,0,30.72-6.75,166,166,0,0,0,27.86-13.82,263,263,0,0,0,48.22-36,268.55,268.55,0,0,0,20.24-21.29c0,.78,0,1.57,0,2.35.47,3.44.83,6.54,1.07,9.32s.36,5.9.36,9.33A52.64,52.64,0,0,1,759.21,452q.35,5.46,1.07,10.61a52.27,52.27,0,0,0,7.15,18l2.85,4.5a21.74,21.74,0,0,0,11.43,9.64l4.29,2.58q9.27,3.22,17.14-.65a28.83,28.83,0,0,0,6.43-3.21,23.66,23.66,0,0,0,5-4.5l2.86-3.86c1.43-1.71,2.5-3.11,3.22-4.18a27.86,27.86,0,0,0,2.5-6.11,74.47,74.47,0,0,0,4.28-17.36,49.49,49.49,0,0,0,2.5-5.14,54,54,0,0,1,2.5-5.15l7.86-16.07,35-55.3q9.27-14.79,18.57-28.61t19.29-28q5-7.06,9.29-13.83a101.54,101.54,0,0,1,10-13.18l5.72-4.5,3.57-1.93v1.29l-2.15,27-2.14,35.37v-3.86a356.4,356.4,0,0,0,.72,50.48,96.62,96.62,0,0,0,17.14,47.26A89.18,89.18,0,0,0,971,460.06q10,7.72,20,9.65a102.88,102.88,0,0,0,11.43,1.92,33.92,33.92,0,0,0,11.43-.63q13.56-1.94,22.86-7.72a110.62,110.62,0,0,0,19.65-13.5,169.74,169.74,0,0,0,16.78-16.72q13.58-14.15,25.72-28.94l22.29-26.75c-.23,3.41-.48,6.83-.71,10.24a181.62,181.62,0,0,0,0,32.15,211.16,211.16,0,0,0,5,29.57A72.1,72.1,0,0,0,1139.06,477a61.8,61.8,0,0,0,10.71,10.93,5.1,5.1,0,0,0,1.43,1,3.68,3.68,0,0,1,1.43,1.61,54.87,54.87,0,0,0,10,5.14,29,29,0,0,0,6.79,1.61c2.14.21,4.39.53,6.78,1h3.57a26.14,26.14,0,0,0,7.15-1.28,25.61,25.61,0,0,0,7.5-2.25c2.15-1.07,4.4-2.26,6.79-3.54l6.43-3.86a9.55,9.55,0,0,0,1.78-1.93,3.85,3.85,0,0,1,1.79-1.28,70.76,70.76,0,0,0,18.93-18.65,183.37,183.37,0,0,0,13.22-22.51q10.71-17.36,20.36-35.36t18.93-36.65q-1.44,30.23-2.86,59.8t-.71,59.8a372.36,372.36,0,0,0,2.14,39.86c.47,3,.82,5.89,1.07,8.68a39.14,39.14,0,0,0,1.79,8.68c.94,3,1.89,6.11,2.86,9.33a62.85,62.85,0,0,0,3.57,9.32,32.74,32.74,0,0,0,14.28,16.08,31.91,31.91,0,0,0,6.79,4.17,36.47,36.47,0,0,0,8.21,1.61,18.33,18.33,0,0,0,7.15,1c1.9-.21,4.75-.75,8.57-1.6a32.69,32.69,0,0,0,7.86-4.51,20,20,0,0,0,4.29-3.21,40.88,40.88,0,0,0,8.57-9q10.71-15.43,9.29-31.51a55.14,55.14,0,0,0-4.29-25.07,43.42,43.42,0,0,0-3.57-6.43,59.92,59.92,0,0,0-5-6.43V448.69q0-15.37.21-30.38c.1.73.21,1.44.31,2.18a136.81,136.81,0,0,0,7.86,28.94l4.28,9.64c2.38,3.44,4.29,6.11,5.72,8a82.11,82.11,0,0,0,6.43,7.39l2.14,1.93,6.43,5.14a12,12,0,0,0,3.57,3.22,47,47,0,0,0,5,2.57,65.88,65.88,0,0,0,15.72,7.72,78,78,0,0,0,32.86,3.21,109,109,0,0,0,30.72-6.75,166,166,0,0,0,27.86-13.82,265.1,265.1,0,0,0,86.44-81l1.49-2.2c-1.86,17.84-.58,57.85,9.73,83.44,2.7,6.72,7.37,11.58,12.14,15.44a49.37,49.37,0,0,0,11.79,4.82,19.46,19.46,0,0,0,12.5-1,31.35,31.35,0,0,0,11.79-9,42.08,42.08,0,0,0,6.79-11.57q7.13-16.07,2.14-34.08c-.48-3.42-1.43-17.14-1.43-20.58a258.63,258.63,0,0,1,5.35-35.68q3.93-17.69,8.94-35.68a581.1,581.1,0,0,1,36.43-93.88c0,2.57.23,13.08.71,16.07q.7,10.29,2.15,20.58T1712.3,314c1,4.29,6.43,20.8,7.86,25.08a81.91,81.91,0,0,0,11.43,21.86,38.39,38.39,0,0,0,9.64,8.36,19.2,19.2,0,0,0,12.5,3.21,24.26,24.26,0,0,0,12.15-4.18c3.32-2.35,10-10.38,11.43-12.53a39.57,39.57,0,0,0,6.79-12.22,61.19,61.19,0,0,0,3.21-13.5A61.76,61.76,0,0,0,1786.6,299.19Zm-359.13,33.86q5-9,10.36-17.69a107.1,107.1,0,0,1,12.5-16.4,47.33,47.33,0,0,1,10-9l4.28-1.93h.72v.64a25.55,25.55,0,0,1-.72,6.1c-.47,1.93-1,4-1.42,6.11q-3.6,10.31-7.15,18.65l-10,14.15a15.66,15.66,0,0,1-5.71,5.14l-5,1.93h-5a9.25,9.25,0,0,0-1.43-3.86,10.86,10.86,0,0,0-1.43-3.21Zm-814.28,0q5-9,10.35-17.69A106.53,106.53,0,0,1,636.05,299a47.28,47.28,0,0,1,10-9l4.28-1.93h.72v.64a25.55,25.55,0,0,1-.72,6.1c-.47,1.93-1,4-1.42,6.11q-3.58,10.31-7.15,18.65l-10,14.15a15.66,15.66,0,0,1-5.71,5.14l-5,1.93h-5a9.34,9.34,0,0,0-1.42-3.86,11.16,11.16,0,0,0-1.43-3.21Zm667.31-67.61q-5,12.22-9.64,23.79T1260.5,313q-5,10.29-10,20.26t-10.71,20.25q-4.29,9-9.29,17.68t-10,17.68q-5,8.37-9.65,16.08a95.29,95.29,0,0,1-11.07,14.79,24.5,24.5,0,0,1-7.14,6.43h-2.86a749.17,749.17,0,0,0-4.29-1.29L1181.2,421a3.42,3.42,0,0,1-.71-2.57,121,121,0,0,1,0-26.36,186.81,186.81,0,0,1,2.5-20.9q1.79-10,3.93-20.26,3.57-10.92,7.86-21.85a222,222,0,0,1,10-21.87,133.47,133.47,0,0,1,17.86-27q3.57-3.21,7.14-6.11t7.15-6.11a51.84,51.84,0,0,0,6.07-2.57,52.33,52.33,0,0,1,6.07-2.57h.71a26.93,26.93,0,0,0,10-2.58,3.11,3.11,0,0,0,2.14-.64h2.15a11.89,11.89,0,0,1,4.28,1.29,5.18,5.18,0,0,1,3.57,1.28,1.54,1.54,0,0,1,1.07.33,3,3,0,0,0,1.79.32l5.71,1.93Z"/></g></g></svg>