<svg xmlns="http://www.w3.org/2000/svg" viewBox="0 0 573.01 621.16"><defs><style>.cls-1{fill:#540a68;}</style></defs><title>Ativo 2</title><g id="Camada_2" data-name="Camada 2"><g id="Camada_1-2" data-name="Camada 1"><path class="cls-1" d="M573,70.08c-1-4.76-1-9.63-1.27-14.46-.75-13-5.64-23.42-16.11-29.87-11.34-7-23.65-6.59-35.77-3.85C502.67,25.79,490,37.4,479.59,52.55c-4.25,6.21-9,11.8-15.79,14.67-10.21,4.32-18.5-1.78-18.65-13.7a70.25,70.25,0,0,1,.79-9c2.51-21.86-10.69-42-29.73-43.17-3.07-.19-6.28,0-9.27-1.31H390.46c-2.1,1.43-4.41.38-6.6.7-7.34.64-14.72.84-21.59,4.47-14.66,7.72-25,19.54-29.63,37.07C329.42,54.39,322.66,62.57,311,65c-7.14,1.47-12-1.39-14.36-8.85a67.59,67.59,0,0,1-2.43-10.85c-1.79-12-7.71-20.43-18-25-25.44-11.38-54.11-1.18-73,21.36-7.56,9-12.28,20.07-18.6,30C175.34,85.89,161.6,86,152.29,72c-4.53-6.81-9.58-13.13-16.94-16.39-10.92-4.83-20.85-1.32-30,5.25C82.14,77.47,66,101,54,127.92c-17.61,39.67-31.75,80.86-41,124-4.37,20.4-9.26,40.69-10.9,61.68C1.29,324,1.62,334.46,0,344.78v8.41A16.26,16.26,0,0,1,0,363v5.61c1,1.19.49,2.65.64,4,.78,6.67.78,13.55,4,19.61,11.13,21,34,24.62,51,8.11,13.47-13.08,20-30.35,24.31-48.9,8.9-38.14,18-76.22,26.92-114.37a54.44,54.44,0,0,1,4.68-13.71c4.83-8.93,17.39-14.1,25.46-10.56,6.73,3,8.49,10.17,5.43,23.17-4.61,19.62-9.34,39.21-13.93,58.84-9.2,39.26-19,78.36-27.32,117.86-2.31,10.93-2.93,22.29,3.06,32.53,8.68,14.84,22.5,18.38,36.62,17,29.64-2.91,51.34-19.36,59.53-54Q215.63,343.53,231,279c4.62-19.38,9-38.82,13.88-58.14,1.93-7.73,4.47-15.29,11.26-19.51,6.15-3.81,12.91-7.73,19.61-2.63,7,5.32,5.21,13.44,3.39,21.08-6.12,25.69-12.07,51.44-18.21,77.12-9.54,39.89-18.79,79.86-28.33,119.74a77.27,77.27,0,0,0-2,20.09c.52,20.7,12.57,34.17,31.42,34.92,2.24.33,4.61-.73,6.76.7H278.9c2.16-1.44,4.54-.37,6.79-.7,9.75-.56,19.12-2,27.66-8.26,14.79-10.78,24.39-25.44,29.23-44.13,5.33-20.62,10.08-41.42,14.94-62.18,10.58-45.12,21.46-90.16,32-135.31,1.78-7.64,5-14.51,10.56-19.51s12.14-7.95,19.38-4.25c5.09,2.62,7.42,10.88,5.58,20-8.3,40.95-19.13,81.19-28.19,121.92-6,27.15-14.14,53.72-18.26,81.38-3,19.89,10.33,40.2,28.32,44a70.38,70.38,0,0,0,30.74-.73c30.08-7,48.7-29.11,61.59-58.21,8.83-19.92,15.09-41,21.74-61.93a1426,1426,0,0,0,39.43-154c4-20.23,8.38-40.42,10.48-61.05,1-9.43.75-19,2.17-28.38V92.5a39.62,39.62,0,0,1,0-15.42Z"/><path class="cls-1" d="M458.94,495,254,484.09c-21.83-1.16-37.13,23.5-28.29,45.6l6.45,16.12c3.61,9,10.74,15.75,19.37,18.27l191.53,56c17.21,5,34.47-7.86,36.68-27.38l6.92-61.21C488.81,512.69,476,495.89,458.94,495Z"/></g></g></svg>